<svg width="105" height="71" viewBox="0 0 105 71" fill="none" xmlns="http://www.w3.org/2000/svg">
    <path
        d="M48.379 44.4625C48.379 44.4625 47.7928 51.5331 55.2482 51.5331C62.7036 51.5331 62.1129 44.4491 62.1129 44.4491C60.4885 44.4491 56.0671 39.267 55.2482 39.267C54.4292 39.267 50.8224 44.458 48.379 44.458V44.4625Z"
        fill="#F5F5F4" />
    <path
        d="M52.5854 28.527C52.5854 28.527 56.0626 29.4265 57.8212 28.527C56.0581 31.1538 55.2481 32.3442 55.2481 32.3442L52.5854 28.527Z"
        fill="#F5F5F4" />
    <path
        d="M55.2525 52.2759C51.2563 52.2759 48.7547 50.647 47.5957 47.3041C47.533 47.1251 47.4793 46.9372 47.4391 46.7448C46.9513 44.5341 48.5086 42.2384 51.6143 37.6694L54.3575 33.6329L51.6143 29.5964C51.3861 29.2608 51.4711 28.7999 51.8112 28.5671C52.1468 28.3389 52.6077 28.4239 52.8405 28.764L55.257 32.3172L57.669 28.764C60.448 24.6783 61.974 22.4274 61.625 20.8387C61.5936 20.7045 61.5578 20.5702 61.5131 20.4494C60.9224 18.74 59.6291 16.4711 55.2525 16.4711C50.8759 16.4711 49.5826 18.74 48.9919 20.4494C48.9472 20.5747 48.9114 20.709 48.88 20.8432C48.701 21.6532 48.9874 22.6422 49.8377 24.1503C50.0391 24.5083 49.9138 24.9558 49.5558 25.1572C49.1978 25.3585 48.7503 25.2332 48.5489 24.8752C47.4883 22.9957 47.1661 21.7382 47.4346 20.521C47.4749 20.3286 47.5286 20.1406 47.5912 19.9616C48.7503 16.6143 51.2563 14.9899 55.248 14.9899C59.2398 14.9899 61.7458 16.6188 62.9048 19.9616C62.9675 20.1406 63.0212 20.3286 63.0615 20.521C63.5492 22.7317 61.9874 25.0229 58.8818 29.5964L56.1386 33.6329L58.8818 37.6694C59.11 38.0095 59.025 38.4659 58.6849 38.6986C58.3492 38.9269 57.8883 38.8418 57.6556 38.5017L55.2435 34.9486L52.827 38.5017C50.0525 42.5875 48.522 44.8384 48.8711 46.427C48.9024 46.5613 48.9382 46.6911 48.983 46.8208C49.5737 48.5303 50.867 50.7992 55.2435 50.7992C59.6201 50.7992 60.9134 48.5303 61.5041 46.8208C61.5489 46.6955 61.5847 46.5658 61.616 46.427C61.795 45.6171 61.5086 44.6281 60.6583 43.12C60.457 42.762 60.5823 42.3145 60.9403 42.1131C61.2938 41.9117 61.7458 42.037 61.9472 42.395C63.0077 44.2745 63.33 45.532 63.0615 46.7492C63.0212 46.9417 62.9675 47.1251 62.9048 47.3086C61.7458 50.656 59.2398 52.2849 55.248 52.2849L55.2525 52.2759Z"
        fill="#F7AF9D" />
    <path
        d="M4.67126 20.6328C4.29983 20.6328 4 20.3329 4 19.9615V4.20935H23.2561C23.6275 4.20935 23.9274 4.50918 23.9274 4.88061C23.9274 5.25204 23.6275 5.55186 23.2561 5.55186H5.34251V19.9615C5.34251 20.3329 5.04269 20.6328 4.67126 20.6328Z"
        fill="#F7AF9D" />
    <path
        d="M101.4 58.2276H82.1434C81.772 58.2276 81.4722 57.9278 81.4722 57.5564C81.4722 57.1849 81.772 56.8851 82.1434 56.8851H100.057V42.4755C100.057 42.104 100.357 41.8042 100.728 41.8042C101.1 41.8042 101.4 42.104 101.4 42.4755V58.2276Z"
        fill="#F7AF9D" />
    <path
        d="M72.7458 58.2276H47.8959C47.5244 58.2276 47.2246 57.9278 47.2246 57.5564C47.2246 57.185 47.5244 56.8851 47.8959 56.8851H72.7458C73.1172 56.8851 73.417 57.185 73.417 57.5564C73.417 57.9278 73.1172 58.2276 72.7458 58.2276Z"
        fill="#F7AF9D" />
    <path
        d="M54.653 5.55186H29.8031C29.4317 5.55186 29.1318 5.25204 29.1318 4.88061C29.1318 4.50918 29.4317 4.20935 29.8031 4.20935H54.653C55.0244 4.20935 55.3243 4.50918 55.3243 4.88061C55.3243 5.25204 55.0244 5.55186 54.653 5.55186Z"
        fill="#F7AF9D" />
    <path
        d="M18.3784 26.6249C18.5395 26.6025 18.6827 26.6473 18.808 26.7502C18.9333 26.8531 19.0049 26.9919 19.0272 27.153C19.0451 27.3006 19.0093 27.4394 18.9154 27.5736C18.8214 27.7079 18.6961 27.7839 18.5305 27.8063C17.2462 27.9764 16.0155 27.8913 14.8386 27.5512C13.6617 27.2111 12.5966 26.6741 11.6434 25.9313C10.6902 25.1884 9.89816 24.2889 9.27166 23.2239C8.64515 22.1588 8.2424 20.9774 8.07234 19.6752C7.90229 18.3729 7.99627 17.1333 8.34085 15.8356C8.39455 15.6789 8.48852 15.5581 8.62277 15.4776C8.75702 15.3925 8.9047 15.3791 9.05685 15.4328C9.209 15.4865 9.32983 15.585 9.41038 15.7237C9.49093 15.8624 9.51778 16.0101 9.48198 16.1623C9.16425 17.2497 9.0837 18.3684 9.23585 19.523C9.38801 20.6776 9.73706 21.6934 10.292 22.6287C10.8469 23.564 11.536 24.3471 12.355 24.987C13.1739 25.6225 14.1002 26.0924 15.134 26.3967C16.1677 26.6965 17.2462 26.7771 18.3649 26.6294L18.3784 26.6249Z"
        fill="#F5F5F4" />
    <path
        d="M30.6846 15.5985C31.3469 15.5985 31.9779 15.7282 32.5775 15.9878C33.1772 16.2473 33.6963 16.5964 34.1349 17.0349C34.5734 17.4735 34.9225 17.9926 35.182 18.5923C35.4416 19.1919 35.5713 19.8229 35.5713 20.4852V26.9561C35.5713 27.0993 35.5132 27.2291 35.3968 27.3454C35.2805 27.4618 35.1417 27.52 34.9806 27.52C34.8195 27.52 34.6853 27.4618 34.5779 27.3454C34.4705 27.2291 34.4168 27.0993 34.4168 26.9561V20.4852C34.4168 19.984 34.3183 19.5052 34.1214 19.0487C33.9245 18.5923 33.656 18.194 33.3159 17.8539C32.9758 17.5138 32.5775 17.2453 32.1211 17.0484C31.6646 16.8515 31.1858 16.753 30.6846 16.753C30.1834 16.753 29.6777 16.8515 29.2213 17.0484C28.7648 17.2453 28.371 17.5138 28.0398 17.8539C27.7087 18.194 27.4447 18.5923 27.2478 19.0487C27.0509 19.5052 26.9524 19.984 26.9524 20.4852C26.9524 20.6463 26.8942 20.785 26.7779 20.9014C26.6615 21.0177 26.5228 21.0759 26.3617 21.0759C26.2185 21.0759 26.0887 21.0177 25.9724 20.9014C25.856 20.785 25.7979 20.6463 25.7979 20.4852V3.06386C25.7979 2.92065 25.856 2.79088 25.9724 2.67453C26.0887 2.55818 26.2185 2.5 26.3617 2.5C26.5228 2.5 26.6615 2.55818 26.7779 2.67453C26.8942 2.79088 26.9524 2.92065 26.9524 3.06386V17.3392C27.3999 16.8201 27.9459 16.3995 28.5903 16.0773C29.2347 15.7551 29.9328 15.594 30.6846 15.594V15.5985Z"
        fill="#F5F5F4" />
    <path
        d="M38.7933 15.6252C38.9544 15.6252 39.0932 15.6834 39.2095 15.7998C39.3259 15.9161 39.384 16.0548 39.384 16.2159V26.9292C39.384 27.0903 39.3259 27.229 39.2095 27.3454C39.0932 27.4617 38.9544 27.5199 38.7933 27.5199C38.6322 27.5199 38.4935 27.4617 38.3772 27.3454C38.2608 27.229 38.2026 27.0903 38.2026 26.9292V16.2159C38.2026 16.0548 38.2608 15.9161 38.3772 15.7998C38.4935 15.6834 38.6322 15.6252 38.7933 15.6252Z"
        fill="#F5F5F4" />
    <path
        d="M38.7933 47.4474C38.6322 47.4474 38.4935 47.3892 38.3772 47.2728C38.2608 47.1565 38.2026 47.0178 38.2026 46.8567V34.0491C38.2026 33.888 38.2608 33.7493 38.3772 33.6329C38.4935 33.5165 38.6322 33.4584 38.7933 33.4584C38.9544 33.4584 39.0932 33.5165 39.2095 33.6329C39.3259 33.7493 39.384 33.888 39.384 34.0491V46.8567C39.384 47.0178 39.3259 47.1565 39.2095 47.2728C39.0932 47.3892 38.9544 47.4474 38.7933 47.4474Z"
        fill="#F5F5F4" />
    <path
        d="M77.928 40.5334C78.0891 40.5334 78.2233 40.5871 78.3307 40.6945C78.4381 40.8019 78.4918 40.9362 78.4918 41.0973V61.5393C78.4918 62.3627 78.3352 63.1369 78.0219 63.8618C77.7087 64.5868 77.2836 65.2178 76.7466 65.7548C76.2095 66.2918 75.583 66.7169 74.867 67.0302C74.151 67.3434 73.3813 67.5 72.5579 67.5C71.7345 67.5 70.9603 67.3434 70.2354 67.0302C69.5104 66.7169 68.875 66.2918 68.329 65.7548C67.783 65.2178 67.3534 64.5868 67.0402 63.8618C66.7269 63.1369 66.5703 62.3627 66.5703 61.5393C66.5703 61.2887 66.5837 61.0426 66.6106 60.8009C66.6374 60.5593 66.6867 60.3131 66.7583 60.0625C66.7941 59.9193 66.8791 59.803 67.0133 59.7135C67.1476 59.624 67.3042 59.5971 67.4832 59.6329C67.6264 59.6866 67.7383 59.7806 67.8188 59.9149C67.8994 60.0491 67.9218 60.1968 67.886 60.3579C67.7965 60.7696 67.7517 61.1634 67.7517 61.5393C67.7517 62.2016 67.877 62.8236 68.1276 63.4054C68.3782 63.9871 68.7228 64.4973 69.1614 64.9359C69.5999 65.3744 70.1101 65.719 70.6918 65.9696C71.2736 66.2202 71.8956 66.3455 72.5579 66.3455C73.2202 66.3455 73.8154 66.2202 74.3972 65.9696C74.9789 65.719 75.4846 65.3744 75.9142 64.9359C76.3438 64.4973 76.6839 63.9871 76.9345 63.4054C77.1851 62.8236 77.3104 62.2016 77.3104 61.5393V46.4942C77.3104 45.8319 77.1851 45.2099 76.9345 44.6281C76.6839 44.0464 76.3438 43.5362 75.9142 43.0976C75.4846 42.6591 74.9789 42.3145 74.3972 42.0639C73.8154 41.8133 73.2023 41.688 72.5579 41.688C71.9135 41.688 71.2736 41.8133 70.6918 42.0639C70.1101 42.3145 69.5999 42.6591 69.1614 43.0976C68.7228 43.5362 68.3782 44.0464 68.1276 44.6281C67.877 45.2099 67.7517 45.8319 67.7517 46.4942C67.7517 47.1565 67.877 47.7517 68.1276 48.3334C68.3782 48.9152 68.7228 49.4254 69.1614 49.8639C69.5999 50.3025 70.1101 50.647 70.6918 50.8976C71.2736 51.1482 71.8956 51.2735 72.5579 51.2735C72.9696 51.2735 73.3903 51.2154 73.8199 51.099C74.2495 50.9827 74.6433 50.8081 75.0013 50.5754C75.1445 50.4859 75.2922 50.4636 75.4443 50.5083C75.5965 50.5531 75.7173 50.647 75.8068 50.7902C75.8963 50.9334 75.9231 51.0766 75.8873 51.2198C75.8515 51.363 75.7621 51.4794 75.6188 51.5689C75.1534 51.8732 74.6567 52.0925 74.1287 52.2267C73.6006 52.361 73.077 52.4281 72.5579 52.4281C71.7345 52.4281 70.9603 52.2715 70.2354 51.9582C69.5104 51.645 68.875 51.2198 68.329 50.6828C67.783 50.1458 67.3534 49.5193 67.0402 48.8033C66.7269 48.0873 66.5703 47.3176 66.5703 46.4942C66.5703 45.6708 66.7269 44.8966 67.0402 44.1716C67.3534 43.4467 67.783 42.8112 68.329 42.2653C68.875 41.7193 69.5104 41.2897 70.2354 40.9765C70.9603 40.6632 71.7345 40.5066 72.5579 40.5066C73.5245 40.5066 74.424 40.7259 75.2564 41.1644C76.0887 41.603 76.7734 42.1892 77.3104 42.9231V41.0973C77.3104 40.9362 77.3686 40.8019 77.4849 40.6945C77.6013 40.5871 77.749 40.5334 77.928 40.5334Z"
        fill="#F5F5F4" />
    <path
        d="M81.848 40.5872C82.0091 40.5872 82.1479 40.6453 82.2642 40.7617C82.3806 40.878 82.4387 41.0168 82.4387 41.1779V47.4877C82.4387 47.6488 82.3806 47.7875 82.2642 47.9039C82.1479 48.0202 82.0091 48.0784 81.848 48.0784C81.6869 48.0784 81.5482 48.0202 81.4319 47.9039C81.3155 47.7875 81.2573 47.6488 81.2573 47.4877V41.1779C81.2573 41.0168 81.3155 40.878 81.4319 40.7617C81.5482 40.6453 81.6869 40.5872 81.848 40.5872Z"
        fill="#F5F5F4" />
    <path
        d="M96.9377 40.5334C97.0988 40.5334 97.2376 40.5916 97.3539 40.708C97.4703 40.8243 97.5284 40.963 97.5284 41.1241V51.8374C97.5284 51.9985 97.4703 52.1372 97.3539 52.2536C97.2376 52.3699 97.0988 52.4281 96.9377 52.4281C96.7766 52.4281 96.6379 52.3699 96.5216 52.2536C96.4052 52.1372 96.347 51.9985 96.347 51.8374V46.4673C96.347 45.805 96.2217 45.183 95.9711 44.6013C95.7205 44.0195 95.3804 43.5138 94.9508 43.0842C94.5212 42.6546 94.0155 42.3145 93.4338 42.0639C92.852 41.8133 92.23 41.688 91.5677 41.688C90.9054 41.688 90.2834 41.8133 89.7016 42.0639C89.1198 42.3145 88.6142 42.6546 88.1846 43.0842C87.755 43.5138 87.4149 44.0195 87.1643 44.6013C86.9137 45.183 86.7883 45.805 86.7883 46.4673C86.7883 47.1297 86.9137 47.7517 87.1643 48.3334C87.4149 48.9152 87.755 49.4209 88.1846 49.8505C88.6142 50.2801 89.1198 50.6202 89.7016 50.8708C90.2834 51.1214 90.9054 51.2467 91.5677 51.2467C92.4269 51.2467 93.2503 51.0229 94.0379 50.5754C94.1811 50.4859 94.3288 50.4591 94.4809 50.4949C94.6331 50.5307 94.7539 50.6202 94.8434 50.7634C94.9329 50.9066 94.9553 51.0543 94.9106 51.2064C94.8658 51.3586 94.7718 51.4794 94.6286 51.5689C93.6978 52.1417 92.6775 52.4281 91.5677 52.4281C90.7443 52.4281 89.9701 52.2715 89.2451 51.9582C88.5202 51.645 87.8892 51.2198 87.3522 50.6828C86.8152 50.1458 86.3901 49.5149 86.0768 48.7899C85.7636 48.0649 85.6069 47.2908 85.6069 46.4673C85.6069 45.6439 85.7636 44.8698 86.0768 44.1448C86.3901 43.4198 86.8152 42.7889 87.3522 42.2519C87.8892 41.7149 88.5202 41.2897 89.2451 40.9765C89.9701 40.6632 90.7443 40.5066 91.5677 40.5066C92.5522 40.5066 93.4606 40.7259 94.293 41.1644C95.1254 41.603 95.81 42.1892 96.347 42.9231V41.1241C96.347 40.963 96.4052 40.8243 96.5216 40.708C96.6379 40.5916 96.7766 40.5334 96.9377 40.5334Z"
        fill="#F7AF9D" />
    <path
        d="M38.7802 47.8367C38.9413 47.8367 39.08 47.8904 39.1963 47.9933C39.3127 48.0962 39.3709 48.226 39.3709 48.3826V51.6628C39.3709 51.8016 39.3127 51.9269 39.1963 52.0387C39.08 52.1506 38.9413 52.2088 38.7802 52.2088C38.637 52.2088 38.5072 52.1551 38.3908 52.0387C38.2745 51.9269 38.2163 51.8016 38.2163 51.6628V48.3826C38.2163 48.226 38.2745 48.1007 38.3908 47.9933C38.5072 47.8904 38.637 47.8367 38.7802 47.8367Z"
        fill="#F7AF9D" />
    <path
        d="M81.8343 37.3113C82.1028 37.3113 82.331 37.4053 82.519 37.5932C82.7069 37.7812 82.8009 38.0094 82.8009 38.2779C82.8009 38.5285 82.7069 38.7478 82.519 38.9357C82.331 39.1237 82.1028 39.2176 81.8343 39.2176C81.5837 39.2176 81.3644 39.1237 81.1765 38.9357C80.9885 38.7478 80.8945 38.5285 80.8945 38.2779C80.8945 38.0094 80.9885 37.7812 81.1765 37.5932C81.3644 37.4053 81.5837 37.3113 81.8343 37.3113Z"
        fill="#F7AF9D" />
    <path
        d="M81.8344 50.0651C81.9955 50.0651 82.1342 50.1232 82.2505 50.2396C82.3669 50.3559 82.4251 50.4947 82.4251 50.6558V51.8372C82.4251 51.9983 82.3669 52.137 82.2505 52.2534C82.1342 52.3697 81.9955 52.4279 81.8344 52.4279C81.6733 52.4279 81.5345 52.3697 81.4182 52.2534C81.3018 52.137 81.2437 51.9983 81.2437 51.8372V50.6558C81.2437 50.4947 81.3018 50.3559 81.4182 50.2396C81.5345 50.1232 81.6733 50.0651 81.8344 50.0651Z"
        fill="#F7AF9D" />
    <path
        d="M44.1636 15.5985C44.3247 15.5985 44.4634 15.6567 44.5798 15.773C44.6961 15.8894 44.7543 16.0281 44.7543 16.1892C44.7543 16.3503 44.6961 16.489 44.5798 16.6054C44.4634 16.7217 44.3247 16.7799 44.1636 16.7799C43.2328 16.7799 42.3825 17.0216 41.6128 17.5049C41.5233 17.5586 41.4249 17.5854 41.3175 17.5854C41.0848 17.5854 40.9147 17.4959 40.8073 17.3169C40.7178 17.1737 40.691 17.0261 40.7268 16.8739C40.7626 16.7217 40.8521 16.6009 40.9953 16.5114C41.9619 15.9028 43.018 15.5985 44.1636 15.5985Z"
        fill="#F7AF9D" />
    <path
        d="M26.3617 22.9822C26.5228 22.9822 26.6615 23.0359 26.7779 23.1433C26.8942 23.2507 26.9524 23.3849 26.9524 23.546V26.956C26.9524 27.0992 26.8942 27.229 26.7779 27.3453C26.6615 27.4617 26.5228 27.5199 26.3617 27.5199C26.2185 27.5199 26.0887 27.4617 25.9724 27.3453C25.856 27.229 25.7979 27.0992 25.7979 26.956V23.546C25.7979 23.3849 25.856 23.2507 25.9724 23.1433C26.0887 23.0359 26.2185 22.9822 26.3617 22.9822Z"
        fill="#F7AF9D" />
    <path
        d="M22.088 10.3895C22.2267 10.4656 22.3117 10.582 22.343 10.7476C22.3744 10.9131 22.352 11.0653 22.2804 11.204C22.1909 11.3651 22.0477 11.4591 21.8463 11.4859C21.7031 11.5038 21.5778 11.477 21.4749 11.3964C19.8549 10.4164 18.1052 10.0494 16.2256 10.3C15.4112 10.4075 14.6415 10.6267 13.9121 10.9534C13.1826 11.2846 12.5114 11.7231 11.9072 12.2646C11.773 12.3765 11.6298 12.4257 11.4732 12.4212C11.3165 12.4123 11.1823 12.3541 11.0749 12.2377C10.963 12.1035 10.9138 11.9558 10.9182 11.7947C10.9227 11.6336 10.9943 11.4994 11.1286 11.3875C11.8177 10.7565 12.583 10.2508 13.4243 9.86597C14.2656 9.48559 15.1472 9.23499 16.069 9.10969C17.1341 8.97096 18.1768 9.01124 19.1881 9.23051C20.1995 9.44979 21.1661 9.83464 22.088 10.3851V10.3895Z"
        fill="#F7AF9D" />
</svg>